<svg xmlns="http://www.w3.org/2000/svg" version="1.1" xmlns:xlink="http://www.w3.org/1999/xlink" xmlns:svgjs="http://svgjs.dev/svgjs" width="1500" height="1500" viewBox="0 0 1500 1500"><g transform="matrix(1,0,0,1,-0.323615160350073,-0.3236151603499593)"><svg viewBox="0 0 343 343" data-background-color="#e0ded5" preserveAspectRatio="xMidYMid meet" height="1500" width="1500" xmlns="http://www.w3.org/2000/svg" xmlns:xlink="http://www.w3.org/1999/xlink"><g id="tight-bounds" transform="matrix(1,0,0,1,0.0740000000000407,0.07400000000001228)"><svg viewBox="0 0 342.85155851775386 342.85155851775386" height="342.85155851775386" width="342.85155851775386"><g><svg></svg></g><g><svg viewBox="0 0 342.85155851775386 342.85155851775386" height="342.85155851775386" width="342.85155851775386"><g><path d="M0 171.426c0-94.676 76.75-171.426 171.426-171.426 94.676 0 171.426 76.75 171.426 171.426 0 94.676-76.75 171.426-171.426 171.426-94.676 0-171.426-76.75-171.426-171.426zM171.426 337.271c91.594 0 165.845-74.251 165.845-165.845 0-91.594-74.251-165.845-165.845-165.846-91.594 0-165.845 74.251-165.846 165.846 0 91.594 74.251 165.845 165.846 165.845z" data-fill-palette-color="tertiary" fill="#243cfc" stroke="transparent"></path><ellipse rx="164.56874808852186" ry="164.56874808852186" cx="171.42577925887693" cy="171.42577925887693" fill="#243cfc" stroke="transparent" stroke-width="0" fill-opacity="1" data-fill-palette-color="tertiary"></ellipse></g><g transform="matrix(1,0,0,1,64.84655864529837,90.42201206135793)"><svg viewBox="0 0 213.1584412271571 162.007534395038" height="162.007534395038" width="213.1584412271571"><g><svg viewBox="0 0 213.1584412271571 162.007534395038" height="162.007534395038" width="213.1584412271571"><g><svg viewBox="0 0 213.1584412271571 162.007534395038" height="162.007534395038" width="213.1584412271571"><g transform="matrix(1,0,0,1,0,100.1271556760711)"><svg viewBox="0 0 213.1584412271571 61.880378718966895" height="61.880378718966895" width="213.1584412271571"><g id="textblocktransform"><svg viewBox="0 0 213.1584412271571 61.880378718966895" height="61.880378718966895" width="213.1584412271571" id="textblock"><g><svg viewBox="0 0 213.1584412271571 61.880378718966895" height="61.880378718966895" width="213.1584412271571"><g transform="matrix(1,0,0,1,0,0)"><svg width="213.1584412271571" viewBox="3 -35.01 155.06 45.019999999999996" height="61.880378718966895" data-palette-color="#e0ded5"><path d="M19.7 0L18.7 0 17.04-2.49Q16.02-1.15 14.48-0.33 12.94 0.49 11.11 0.49L11.11 0.49 10.35 0.49Q8.84 0.49 7.5-0.09 6.15-0.66 5.15-1.66 4.15-2.66 3.58-4 3-5.35 3-6.86L3-6.86 3-7.1Q3-8.62 3.58-9.96 4.15-11.3 5.15-12.3 6.15-13.31 7.5-13.88 8.84-14.45 10.35-14.45L10.35-14.45 16.7-14.45 16.7-18.31Q16.7-19.21 16.36-20.01 16.02-20.8 15.43-21.39 14.84-21.97 14.05-22.31 13.26-22.66 12.35-22.66L12.35-22.66 10.6-22.66Q9.69-22.66 8.9-22.31 8.11-21.97 7.52-21.39 6.93-20.8 6.59-20.01 6.25-19.21 6.25-18.31L6.25-18.31 6.25-17.41 3.25-17.9 3.25-18.14Q3.25-19.65 3.82-21 4.39-22.34 5.4-23.34 6.4-24.34 7.74-24.91 9.08-25.49 10.6-25.49L10.6-25.49 12.35-25.49Q13.87-25.49 15.21-24.91 16.55-24.34 17.55-23.34 18.55-22.34 19.13-21 19.7-19.65 19.7-18.14L19.7-18.14 19.7 0ZM16.7-6.69L16.7-12.11 10.35-12.11Q9.45-12.11 8.65-11.77 7.86-11.43 7.28-10.83 6.69-10.23 6.35-9.44 6.01-8.64 6.01-7.74L6.01-7.74 6.01-6.69Q6.01-5.79 6.35-4.99 6.69-4.2 7.28-3.61 7.86-3.03 8.65-2.69 9.45-2.34 10.35-2.34L10.35-2.34 12.35-2.34Q13.26-2.34 14.05-2.69 14.84-3.03 15.43-3.61 16.02-4.2 16.36-4.99 16.7-5.79 16.7-6.69L16.7-6.69ZM42.4 0L41.4 0 39.74-2.54Q38.72-1.15 37.18-0.33 35.64 0.49 33.81 0.49L33.81 0.49 33.05 0.49Q31.54 0.49 30.2-0.09 28.85-0.66 27.85-1.66 26.85-2.66 26.28-4 25.71-5.35 25.71-6.86L25.71-6.86 25.71-25 28.71-25 28.71-6.69Q28.71-5.79 29.05-4.99 29.39-4.2 29.98-3.61 30.56-3.03 31.36-2.69 32.15-2.34 33.05-2.34L33.05-2.34 35.06-2.34Q35.96-2.34 36.75-2.69 37.55-3.03 38.13-3.61 38.72-4.2 39.06-4.99 39.4-5.79 39.4-6.69L39.4-6.69 39.4-25 42.4-25 42.4 0ZM60.25 0L57.51 0Q56.15 0 54.94-0.51 53.73-1.03 52.84-1.93 51.95-2.83 51.42-4.03 50.9-5.22 50.9-6.59L50.9-6.59 50.9-22.14 46.41-22.14 46.41-25 50.9-25 50.9-31.01 53.9-31.49 53.9-25 60.25-25 60.25-22.14 53.9-22.14 53.9-6.45Q53.9-5.69 54.18-5.04 54.46-4.39 54.95-3.91 55.44-3.42 56.1-3.14 56.76-2.86 57.51-2.86L57.51-2.86 60.25-2.86 60.25 0ZM82.46-6.86L82.46-6.86Q82.46-5.35 81.89-4 81.32-2.66 80.31-1.66 79.31-0.66 77.97-0.09 76.63 0.49 75.11 0.49L75.11 0.49 73.11 0.49Q71.6 0.49 70.26-0.09 68.91-0.66 67.91-1.66 66.91-2.66 66.34-4 65.76-5.35 65.76-6.86L65.76-6.86 65.76-18.14Q65.76-19.65 66.34-21 66.91-22.34 67.91-23.34 68.91-24.34 70.26-24.91 71.6-25.49 73.11-25.49L73.11-25.49 75.11-25.49Q76.63-25.49 77.97-24.91 79.31-24.34 80.31-23.34 81.32-22.34 81.89-21 82.46-19.65 82.46-18.14L82.46-18.14 82.46-6.86ZM79.46-6.69L79.46-18.31Q79.46-19.21 79.12-20.01 78.78-20.8 78.19-21.39 77.6-21.97 76.81-22.31 76.02-22.66 75.11-22.66L75.11-22.66 73.11-22.66Q72.21-22.66 71.42-22.31 70.62-21.97 70.04-21.39 69.45-20.8 69.11-20.01 68.77-19.21 68.77-18.31L68.77-18.31 68.77-6.69Q68.77-5.79 69.11-4.99 69.45-4.2 70.04-3.61 70.62-3.03 71.42-2.69 72.21-2.34 73.11-2.34L73.11-2.34 75.11-2.34Q76.02-2.34 76.81-2.69 77.6-3.03 78.19-3.61 78.78-4.2 79.12-4.99 79.46-5.79 79.46-6.69L79.46-6.69ZM92.47 0L89.47 0 89.47-35.01 92.47-35.01 92.47 0ZM116.17-25L103.53 10.01 100.62 10.01 105.07-2.15 96.96-25 99.96-25 106.48-6.05 106.58-4.76 106.68-6.05 113.17-25 116.17-25ZM135.87 0L132.87 0 132.87-18.31Q132.87-19.21 132.53-20.01 132.19-20.8 131.6-21.39 131.02-21.97 130.22-22.31 129.43-22.66 128.53-22.66L128.53-22.66 126.52-22.66Q125.62-22.66 124.83-22.31 124.03-21.97 123.45-21.39 122.86-20.8 122.52-20.01 122.18-19.21 122.18-18.31L122.18-18.31 122.18 0 119.17 0 119.17-25 120.18-25 121.81-22.46Q122.84-23.85 124.39-24.67 125.94-25.49 127.77-25.49L127.77-25.49 128.53-25.49Q130.04-25.49 131.38-24.91 132.72-24.34 133.73-23.34 134.73-22.34 135.3-21 135.87-19.65 135.87-18.14L135.87-18.14 135.87 0ZM158.06 0L154.82 0 149.47-9.59 144.12 0 140.88 0 147.88-12.5 140.88-25 144.12-25 149.47-15.41 154.82-25 158.06-25 151.08-12.5 158.06 0Z" opacity="1" transform="matrix(1,0,0,1,0,0)" fill="#e0ded5" class="wordmark-text-0" data-fill-palette-color="quaternary" id="text-0"></path></svg></g></svg></g></svg></g></svg></g><g transform="matrix(1,0,0,1,65.12353617058622,0)"><svg viewBox="0 0 82.91136888598466 85.51868338961226" height="85.51868338961226" width="82.91136888598466"><g><svg xmlns="http://www.w3.org/2000/svg" data-name="Layer 1" viewBox="10.25 9 79.5000125185757 82.00005007028109" x="0" y="0" height="85.51868338961226" width="82.91136888598466" class="icon-icon-0" data-fill-palette-color="quaternary" id="icon-0"><path d="M26.54 91H11.25A1 1 0 0 1 10.25 90V81.25A1 1 0 0 1 12.25 81.25V89H25.55V81.25A1 1 0 0 1 27.55 81.25V90A1 1 0 0 1 26.54 91" fill="#e0ded5" data-fill-palette-color="quaternary"></path><path d="M73.31 91A1 1 0 0 1 72.31 90V81.25A1 1 0 0 1 74.31 81.25V89H87.75V81.25A1 1 0 0 1 89.75 81.25V90A1 1 0 0 1 88.75 91z" fill="#e0ded5" data-fill-palette-color="quaternary"></path><path d="M88.75 82.25H11.25A1 1 0 0 1 10.25 81.25V51A1 1 0 0 1 10.37 50.53L24.37 24.11A1 1 0 0 1 25.25 23.58H74.48A1 1 0 0 1 75.36 24.1L89.63 50.52A1 1 0 0 1 89.75 51V81.25A1 1 0 0 1 88.75 82.25M12.24 80.25H87.75V51.25L73.88 25.58H25.88L12.25 51.25Z" fill="#e0ded5" data-fill-palette-color="quaternary"></path><path d="M24.65 74.29A8.17 8.17 0 1 1 32.82 66.12 8.18 8.18 0 0 1 24.65 74.29M24.65 59.95A6.17 6.17 0 1 0 30.82 66.12 6.18 6.18 0 0 0 24.65 60Z" fill="#e0ded5" data-fill-palette-color="quaternary"></path><path d="M75.35 74.29A8.17 8.17 0 1 1 83.52 66.12 8.18 8.18 0 0 1 75.35 74.29M75.35 59.95A6.17 6.17 0 1 0 81.52 66.12 6.18 6.18 0 0 0 75.35 60Z" fill="#e0ded5" data-fill-palette-color="quaternary"></path><path d="M41.38 20.94A4.08 4.08 0 1 1 45.46 16.85 4.09 4.09 0 0 1 41.38 20.94M41.38 14.77A2.08 2.08 0 1 0 43.46 16.85 2.09 2.09 0 0 0 41.38 14.77" fill="#e0ded5" data-fill-palette-color="quaternary"></path><path d="M33.33 20.94A4.08 4.08 0 1 1 37.41 16.85 4.09 4.09 0 0 1 33.33 20.94M33.33 14.77A2.08 2.08 0 1 0 35.41 16.85 2.09 2.09 0 0 0 33.33 14.77" fill="#e0ded5" data-fill-palette-color="quaternary"></path><path d="M66.67 20.94A4.08 4.08 0 1 1 70.76 16.85 4.09 4.09 0 0 1 66.67 20.94M66.67 14.77A2.08 2.08 0 1 0 68.76 16.85 2.09 2.09 0 0 0 66.67 14.77" fill="#e0ded5" data-fill-palette-color="quaternary"></path><path d="M58.62 20.94A4.08 4.08 0 1 1 62.7 16.85 4.09 4.09 0 0 1 58.62 20.94M58.62 14.77A2.08 2.08 0 1 0 60.7 16.85 2.09 2.09 0 0 0 58.62 14.77" fill="#e0ded5" data-fill-palette-color="quaternary"></path><path d="M74.48 25.58A1 1 0 0 1 73.48 24.58V11H26.23V24.58A1 1 0 0 1 24.23 24.58V10A1 1 0 0 1 25.23 9H74.48A1 1 0 0 1 75.48 10V24.58A1 1 0 0 1 74.48 25.58" fill="#e0ded5" data-fill-palette-color="quaternary"></path><path d="M52.88 20.94H46.88A1 1 0 0 1 45.88 19.94V13.77A1 1 0 0 1 46.88 12.77H52.88A1 1 0 0 1 53.88 13.77V19.94A1 1 0 0 1 52.88 20.94M47.88 18.94H51.88V14.77H47.88Z" fill="#e0ded5" data-fill-palette-color="quaternary"></path><path d="M84.38 52H15.62A1 1 0 0 1 14.74 50.53L27 27.61A1 1 0 0 1 27.88 27.08H71.88A1 1 0 0 1 72.76 27.6L85.26 50.52A1 1 0 0 1 84.38 52M17.28 50H82.7L71.26 29.08H28.45Z" fill="#e0ded5" data-fill-palette-color="quaternary"></path></svg></g></svg></g><g></g></svg></g></svg></g></svg></g></svg></g><defs></defs></svg><rect width="342.85155851775386" height="342.85155851775386" fill="none" stroke="none" visibility="hidden"></rect></g></svg></g></svg>